[URL=http://pix2links.com][img]http://www.pix2links.com/images/52528860993322306373.jpg[/img][/URL]

[img]http://www.pix2links.com/images/01947755460785202029.jpg[/img]

*******************************************************************************
                                   SiNiSTER/TDT
*******************************************************************************

-------------------------------------------------------------------------------
                              General Information
-------------------------------------------------------------------------------

General
Unique ID                        : 213522898890167972858537312181372980155 (0xA0A303B4DCD3563D917819286BE20BBB)
Complete name                    : E:Zathura A Space Adventure (2005) [Hindi-English] Dual Audio SiNiSTERTDT.mkv
Format                           : Matroska
File size                        : 747 MiB
Duration                         : 1h 41mn
Overall bit rate                 : 1 031 Kbps
Movie name                       : Zathura: A Space Adventure (2005) [Hindi-English] Dual Audio SiNiSTER/TDT
Encoded date                     : UTC 2005-01-01 06:20:24
Writing application              : mkvmerge v4.3.0 ('Escape from the Island') built on Sep  5 2010 10:30:51
Writing library                  : libebml v1.0.0 + libmatroska v1.0.0
Encoder                          : WOLFMANER/wofinvi/Mogambo/RANGER
Video
ID                               : 1
Format                           : AVC
Format/Info                      : Advanced Video Codec
Format profile                   : Main@L3.1
Format settings, CABAC           : Yes
Format settings, ReFrames        : 4 frames
Muxing mode                      : Header stripping
Codec ID                         : V_MPEG4/ISO/AVC
Duration                         : 1h 41mn
Bit rate                         : 646 Kbps
Width                            : 1 280 pixels
Height                           : 688 pixels
Display aspect ratio             : 1.860
Frame rate mode                  : Variable
Frame rate                       : 23.810 fps
Color space                      : YUV
Chroma subsampling               : 4:2:0
Bit depth                        : 8 bits
Scan type                        : Progressive
Bits/(Pixel*Frame)               : 0.031
Stream size                      : 454 MiB (61%)
Title                            : SiNiSTER/TDT
Writing library                  : x264 core 112
Encoding settings                : cabac=1 / ref=2 / deblock=1:0:0 / analyse=0x1:0x111 / me=hex / subme=6 / psy=1 / psy_rd=1.00:0.00 / mixed_ref=0 / me_range=16 / chroma_me=1 / trellis=0 / 8x8dct=0 / cqm=0 / deadzone=21,11 / fast_pskip=1 / chroma_qp_offset=-2 / threads=1 / sliced_threads=0 / nr=0 / decimate=1 / interlaced=0 / constrained_intra=0 / bframes=2 / b_pyramid=2 / b_adapt=1 / b_bias=0 / direct=1 / weightb=0 / open_gop=0 / weightp=2 / keyint=240 / keyint_min=23 / scenecut=40 / intra_refresh=0 / rc_lookahead=40 / rc=2pass / mbtree=1 / bitrate=646 / ratetol=1.0 / qcomp=0.60 / qpmin=3 / qpmax=51 / qpstep=4 / cplxblur=20.0 / qblur=0.5 / ip_ratio=1.40 / aq=1:1.00
Color primaries                  : BT.709-5, BT.1361, IEC 61966-2-4, SMPTE RP177
Transfer characteristics         : BT.709-5, BT.1361
Matrix coefficients              : BT.709-5, BT.1361, IEC 61966-2-4 709, SMPTE RP177

Audio #1
ID                               : 2
Format                           : AC-3
Format/Info                      : Audio Coding 3
Mode extension                   : CM (complete main)
Muxing mode                      : Header stripping
Codec ID                         : A_AC3
Duration                         : 1h 41mn
Bit rate mode                    : Constant
Bit rate                         : 192 Kbps
Channel(s)                       : 2 channels
Channel positions                : Front: L R
Sampling rate                    : 48.0 KHz
Bit depth                        : 16 bits
Compression mode                 : Lossy
Stream size                      : 139 MiB (19%)
Title                            : SiNiSTER/TDT
Language                         : English

Audio #2
ID                               : 3
Format                           : AC-3
Format/Info                      : Audio Coding 3
Mode extension                   : CM (complete main)
Muxing mode                      : Header stripping
Codec ID                         : A_AC3
Duration                         : 1h 41mn
Bit rate mode                    : Constant
Bit rate                         : 192 Kbps
Channel(s)                       : 2 channels
Channel positions                : Front: L R
Sampling rate                    : 48.0 KHz
Bit depth                        : 16 bits
Compression mode                 : Lossy
Stream size                      : 139 MiB (19%)
Title                            : SiNiSTER/TDT


Greets(TDT):
Team TDT,DDR,HDDR,DUS,ExD,TNT,IcTV,SaM..etc



Greets(SiNiSTER):
DarkScene,HDScene,Noir,CrEwSaDe,blackjesus,ViSiON,HDLiTE,UnKnOwN,EP1C,IMAGiNE,
FLAWL3SS,Rx,ELEKTRI4KA,CiNEDUB,BDK,SAFCuk009,HiVE-CM8..... and everybody else we 
respect.. u know who u are

-------------------------------------------------------------------------------
                               Post Information
-------------------------------------------------------------------------------
Encoded by...........: SiNiSTER & TDT its a combined release of Both
 
Have sumthing to offer..looking for suppliers... cammers,cams,screeners, audio
supplier.. and any pre retail DVD/BR any RC...if u can provide any email us at
sinister@hushmail.me


-------------------------------------------------------------------------------
                                 ScreenShots
-------------------------------------------------------------------------------
 [URL=http://pix2links.com][img]http://www.pix2links.com/images/64078643995736338238.png[/img][/URL]
        [URL=http://pix2links.com][img]http://www.pix2links.com/images/31677963650358902736.png[/img][/URL]
        [URL=http://pix2links.com][img]http://www.pix2links.com/images/23569633030649057783.png[/img][/URL]
        [URL=http://pix2links.com][img]http://www.pix2links.com/images/66140155037285452338.png[/img][/URL]
        [URL=http://pix2links.com][img]http://www.pix2links.com/images/90432490084755505992.png[/img][/URL]
        [URL=http://pix2links.com][img]http://www.pix2links.com/images/31718124321363289781.png[/img][/URL]
        [URL=http://pix2links.com][img]http://www.pix2links.com/images/64062947949469346634.jpg[/img][/URL]


Enjoy guysss :P

-------------------------------------------------------------------------------
Generated with Cool NFO Creator - http://fly.to/coolbeans
-------------------------------------------------------------------------------

[img]http://www.pix2links.com/images/33502453931372952618.gif[/img]
